<mxfile host="Electron" modified="2025-07-18T06:00:19.812Z" agent="Mozilla/5.0 (X11; Linux x86_64) AppleWebKit/537.36 (KHTML, like Gecko) draw.io/24.6.4 Chrome/124.0.6367.207 Electron/30.0.6 Safari/537.36" etag="rlZOSrqWf9qgxigFZMux" version="24.6.4" type="device">
  <diagram name="Seite-1" id="HlcFUPRuMz3p12xPu3S4">
    <mxGraphModel dx="2261" dy="835" grid="1" gridSize="10" guides="1" tooltips="1" connect="1" arrows="1" fold="1" page="1" pageScale="1" pageWidth="827" pageHeight="1169" math="0" shadow="0">
      <root>
        <mxCell id="0" />
        <mxCell id="1" parent="0" />
        <mxCell id="rTuLrcbvyKC0Gn88jxRC-9" value="&lt;font style=&quot;font-size: 20px;&quot;&gt;&lt;b&gt;Innenbereich&lt;/b&gt;&lt;/font&gt;" style="whiteSpace=wrap;html=1;aspect=fixed;dashed=1;dashPattern=8 8;fillColor=none;verticalAlign=top;" vertex="1" parent="1">
          <mxGeometry x="530" y="110" width="270" height="270" as="geometry" />
        </mxCell>
        <mxCell id="rTuLrcbvyKC0Gn88jxRC-8" value="&lt;b&gt;&lt;font style=&quot;font-size: 20px;&quot;&gt;Aussenbereich&lt;/font&gt;&lt;/b&gt;" style="whiteSpace=wrap;html=1;aspect=fixed;dashed=1;dashPattern=8 8;fillColor=none;verticalAlign=top;" vertex="1" parent="1">
          <mxGeometry x="-60" y="110" width="270" height="270" as="geometry" />
        </mxCell>
        <mxCell id="rTuLrcbvyKC0Gn88jxRC-11" style="edgeStyle=orthogonalEdgeStyle;rounded=0;orthogonalLoop=1;jettySize=auto;html=1;entryX=0;entryY=0.5;entryDx=0;entryDy=0;" edge="1" parent="1" source="rTuLrcbvyKC0Gn88jxRC-1" target="rTuLrcbvyKC0Gn88jxRC-2">
          <mxGeometry relative="1" as="geometry" />
        </mxCell>
        <mxCell id="rTuLrcbvyKC0Gn88jxRC-12" value="&lt;font style=&quot;font-size: 17px;&quot;&gt;&lt;b&gt;LAN Kabel max 10 Meter&lt;/b&gt;&lt;/font&gt;" style="edgeLabel;html=1;align=center;verticalAlign=middle;resizable=0;points=[];" vertex="1" connectable="0" parent="rTuLrcbvyKC0Gn88jxRC-11">
          <mxGeometry x="-0.1163" y="-4" relative="1" as="geometry">
            <mxPoint as="offset" />
          </mxGeometry>
        </mxCell>
        <mxCell id="rTuLrcbvyKC0Gn88jxRC-1" value="&lt;font style=&quot;font-size: 17px;&quot;&gt;FÃ¼llmengen&lt;br&gt;Sensor&lt;/font&gt;" style="rhombus;whiteSpace=wrap;html=1;" vertex="1" parent="1">
          <mxGeometry x="-10" y="180" width="150" height="140" as="geometry" />
        </mxCell>
        <mxCell id="rTuLrcbvyKC0Gn88jxRC-5" style="edgeStyle=orthogonalEdgeStyle;rounded=0;orthogonalLoop=1;jettySize=auto;html=1;" edge="1" parent="1" source="rTuLrcbvyKC0Gn88jxRC-2">
          <mxGeometry relative="1" as="geometry">
            <mxPoint x="670" y="560" as="targetPoint" />
          </mxGeometry>
        </mxCell>
        <mxCell id="rTuLrcbvyKC0Gn88jxRC-6" value="&lt;font style=&quot;font-size: 17px;&quot;&gt;USB Micro&lt;br&gt;Netzteil an 230V&lt;/font&gt;" style="edgeLabel;html=1;align=center;verticalAlign=middle;resizable=0;points=[];" vertex="1" connectable="0" parent="rTuLrcbvyKC0Gn88jxRC-5">
          <mxGeometry x="0.0119" relative="1" as="geometry">
            <mxPoint as="offset" />
          </mxGeometry>
        </mxCell>
        <mxCell id="rTuLrcbvyKC0Gn88jxRC-2" value="&lt;font style=&quot;font-size: 17px;&quot;&gt;Auswertung mit WLAN&lt;/font&gt;" style="whiteSpace=wrap;html=1;aspect=fixed;" vertex="1" parent="1">
          <mxGeometry x="570" y="150" width="200" height="200" as="geometry" />
        </mxCell>
        <mxCell id="rTuLrcbvyKC0Gn88jxRC-7" value="" style="shape=image;verticalLabelPosition=bottom;labelBackgroundColor=default;verticalAlign=top;aspect=fixed;imageAspect=0;image=data:image/png,iVBORw0KGgoAAAANSUhEUgAAAMAAAAJeCAIAAABtTZ1KAAAAA3NCSVQICAjb4U/gAAAgAElEQVR4Xu2dCZAkV3Wua9+6eu9ZNaMNzUhoAyF2SYAECMxuwGAMNouxIx7YYceLgAgThB+BHfAQ8MDPEH7GgFkMxmCzCLSAJBAChCQEyGiXEFpmRrP39FZde9X7ss7MVam6anpa1d1zbvZJRsWtm3c5ef4vz715Mys72mw2I7aZB56oB2JPtKLVMw8EHjCAjIO+PGAA9eU+q2wAGQN9ecAA6st9VtkAMgb68oAB1Jf7rLIBZAz05QEDqC/3WWUDyBjoywOJvmrrqLzSd2Oi0eiSDnSp9iy1/SUZs9KFLQKttIdD3r4BFHKBV/rwDKCV9nDI2zeAQi7wSh+eAbTSHg55+wZQyAVe6cMzgFbawyFvPwzrQDNT09lsNpVOi1bNRiNYWQn+NbqqV490z+9amMx4rx098htLWzaKVAq1TCYTjUWajUi1Wo3FYolkq88lttPDnJXNji511Wtlzemv9UqlkkqlarVaqVRKJBL1er1re81orWt+r8zYEhcSG0t8zDyfG5auGy2AMBtR2PL5XC+T9OSHIQIdOnRoZGQEesStoJNMJtNHAlI3Xy8tAnVrYTnz4KbBf5FIIhFLp5ORCP8iULScfaxYW2EAqBFpMmAxhFWqFbxerpTni/N8nZ8vdfVbgqFiKVttiRPFxNKaj9SiMQIPw24ul4MhTKvVGpwPA7nMUsw8PmXDMITVIk3mO7V6DafnsouH/fgSz+36Euci/bffaEZi0SXPvY4LQWEAqNSocQbH4/FUIhWcvo3a7Ozs1NTU8NBEV59GI93nRl0LkwmeS9qiSwR0br7AjIeRl42xjANZNz5Oj16MDmEAyE2Jy9Xytddee/fdd09PT+/atSse6z4ENJaocJSAsJStSfRYypZKxECHSRujGACNj48/5znPefaznz14tGncUjpYybJeUL6IA5iDEoHSyfRvfvObT33qU7/85S/Xr1/PxXCkGcxGF261JY4xserSJjWN5NImTbFaTZ7oKBQKMzMzExMT+/btK5fLr7j00oXGa8sJQwTCp7V6c++Bg29929se3LkjnkglMlmQSiZizIq4KgYmNrk2Ds7yZlSu0ebn57nm58qfAMDeRvPwdVyHSHKJtFC5Xs/xzM3Nsa4jXbhrchrJpLLFYpElK/odGxvDpAcffPCkk04qzRYYtmiNwmwYQxm2y7/1tdHhUfqt12vJeLxZb7A3lUypWh8KQwRaKK3k4G5U4ZJe5HEAcZZHmnU0HhkeREXKQFsQw9L5rk1RcUn5Q/lBykNMQF4yQu9BOIxEZmcLQ0ND8MHX/fv3c8112mmnTU5OZuKPWSi1wBr028HlKoErzV7IdjVvdTLDDBACIB4brnQQkBgfH2GAqFSKjUYw9ZbznsKo1tXpvWTrlU/wINKwmEmb4EuEk/g3ODhId0zO1rU2pvnSghBGmgRVsBCAsATDGJ1jXJC1VjJb/CxtdtX1cJY3M8wA4W459dFDJCEHecZGstVyYa4wg0J85ZNiyFyc775CLQgeu9/nUykGKUKIrGcWIwXCGwbkBodOPPFEIh97mSkDGUugAwMDzcrhfjFDgBaGJBrJIQhALn3sxqx0yTADJFEHPtCStIxlqHLvPfcQDLZu2cJcm2hBDmAxstR7rBj2AshFtQ6RKE+PiE3jfIILsyIA+ulNNxN+mPQwR37ooYfoXRDh5h0tCBztiEg0EnRWmoMn3H7IATqsULOJqMgJKIwsk7sPPnn72a9+9avPP/98IgGagQIbt0C6+rEXQDDXtTxNyeBFsIEbFqWCGX0y+ZkvfOH/fuxjAL1161aQolnC3sGDB7OJlFSREUrs6dWyqhk0RnZ3QVfr/c2UAIMwTH2YQT//kktf+tKXvuD5L2RKy4oRmRKcmBd1PcZeA0ev221CLXjRMuhADJhuXD/+rne9i8uu66+/npFr8+bNsMV1O41DkhDc3ruEN0HKTX0ks6uRxyszzADJHAiniwASDLj8+dD7P3juuedmM9kfXfujq6++es+ePUxE2CrV+a4yOP069vaSE3ToCzLYgImWzzjjjLPPPvu5L7zks5/97J/92Z9d/vWvn/HUp1IsuOE1MBCrBxHLDVjSizObr8ElWGvr1WNXs1cnMwwAcWOi2qhzIs8U5hgU6rVmLpWenCtMTIwwfLA2x5BRmJ179MGHuMD+1Ec+esHzLmjGm9/63ncuv/IKrqJHhkYY3h5+dPfQQD6VSxWrpVKtyGy7Vq4ko4nx4VEaJ2YkEvGBgWytHlxdZzIpqJqPDBWnp0eyuUaxDA3JfG735EGmWtFYiZiSH8js37eDmxI7d+z+3a6Hf337Haefc9Ypp5zyiY9edsKG9Z//7OdGBoeedMqpGMBNVJnOE4poVkgS+IRdFoCIUwDRa9BcHVa69hIGgLoeGJk7duzYsmVLIh4nxhw6OHnGtu0XPOe5F1xwwf4De2+8+aZvX/7tYrXCZVGTByfqjaHBgVgz3eCmeDM5MjQ0PjHarFYO7ZucL5Q3bNiUig+wgzbr9WoiydJx9cCBA9n1gxPrRmtzhfxgi6fK/MZN64r1+tDA2K5HH04lcps3bM3nBjKxfKQRf3TX/i996UsXX3zx8y666J3vfOfczOxV37uCqfSmTZuoQsvCiosxCoNNVz+HGSAuf5jczBcKzFi5P/CGN7zheRdexPXXvQ89gHJTU9MDg4PVcnWG267Z3OjIQKKZr9RrxanJ/bP7ioVCJhFnBBodHnzwdw8x0OQHB5jTFIssBuYHB4dYIpiulTK5wcmD09kYkak+PTOzbvCkWrVMCKqXKpFqPR5PzByaqZTqmzdtnZ0uXXfddUSyifHxpz3lnPe+972VYumG63/MJIz4Bz1sDpr2dFfZ9GSGGaANGzaADpMeBo4XXnzJ6173ukatftVVV330//6fXH6AheCNGzdHiT/lciLe3L/nkVqpsf4EIsJQtZ5j8js7M1mamy7NJdev28zImMlyc61y8MD++cLe0fIwo0k2O8S0KZtLNCPzUcaswXSxNNuoR+Zmdg1mm43aVK0SLCQWaoVmozg2lovODtx2222f//zns+9+95nbT3vPe96TiMWvvPLKsY0bKSZjlpv6+BKBlnbbTw/4x2LJ6Ogo11xMLy699NJXvOIVTGxvuOGGyy+//IQtG1iM2bxpS7QRPXRwqlmvjQ8PDA0kTjwxl4hN79tz3749D6SSxSedMrb9tInNm1MT6xJ79917772/aDSnn3zm5rPP3TqxLh2Lz2LDnkd3ZjOxaqWQSkaedOqWerVMrIrUDm7ftm4gW2nUDk6MJcuV/Y/uvS8SK7D6zIXbrbfe+ulPf/r2O+95yrlnvuUtb9m2bVv7IicToI5odCxHehzLhDkCcY3Dqg9jFo9GbNy48ftXXnXtD65h0rrupPFiqVKcKXC76cCeXaefuuWNr3/NU88+o1ydvPoH13/5K1/fvf/gWWee9qqXvXjL5tFopPKt7/387nvumJs/tP30Z73mNa/ZtGnjw488ePvtt7/3ff9v88bR//k/3vGUM0/jQn3v5Nx73v+hO267M1F66LWvuvS8899M15FY8iOXffKuO++fPHQgPxjHjLnZ2RtvvDEWiX7wf30Aw1784hd/4atfhQBZLLA50HE8GTq7BqBgDbp1Ic2Iw3NCDzzwAOMaN6EisdRQnoe2Ynt3PHz/ffdcd+3377njllg0ftfdD+zfE6z87Xzo4K9+cde9mUapNP3b+6emDhTn5qr33fnwdZmfjo4N79mz+/7772cIm58rXvP9H/z65htgpR7N7t97gMeaM/H8w/fvOrB3Zq5QmJ4p/ODKH5940rYTN21/9MAeFjOJi0zqxZinnHMu5BEjMb19Ei3pzuNR+T3MEYjxgqnMof37maiiHOvCrYlLNp5olqtRBo5mk4fYs9FK+eYbf3b7bb/N55KbtpwyNrIllaw+dP/e3937nfL8/matkB3Z1mxmx0aGH7h/380//yLXbKxAcsV92mnbClN7b7nl1tLsfiRP5yeK9Vw6N9qcy17xnR/u3rsnnctOrN9cLWeGBjbv2jE1tH6Qa7fBfJ6fAIARVUB1586dEnU8gqad5JAAlEoGP+IBjoOHDqWSGe5Tgs7k/gPpRLIxkI9HY4xctWZjdP3E/qnJwZHhdHCBVZ8vzuby6bm5gb3z9Q2nn52IxoKVxFo50vqFWTSSy2RPCjKawbykyKP7qcToCSe4aDE7vY+7tbXYWGJsjAKEEZ4p5KH+5Lr15Xo9v3ELJs2UK5tP2lRuzAyO5RvVGs8iDQ7ka5Uql2PTc7ORZLyZiBVrFS70I3V2N+OZVPAEU62eyXZ/nFJbGAoJQM6tcjbzyZbNZbnwZnWOp7cYxcgh6nDxxcSITKar7GVjmEOyYOra414YC8XSvgQJFyrah57HxY94QDN9SQES0EwvhEBySLSWIjPcTB0bOfxAkjYsjt2ekADEGh98yBpu60KGjwZRh2t40CGNcnJXnDlHPMniYnD7iTpoS9Bgb3DfodeNytYzzg4RlwAFl98OEBfn9MhwSRd0JE8nyi8eKcYVO92BFBxXak1CET1L9cCkBSuKx67lcSkZFoACGIItAOcIQMPDw8x+mAmRTxggXx42nS8V5Z4AEpLDeEcBVKz2uJkqv8roCD98JXp1jUyMmGKJNMvACrsyCYM5arG4QCKYy0cirHACGb2L/QLQ4+LZceHimDsNDUCPhR8HEKMV4QeAEIyLL5YTufzhcgk5AQjNUJG0cICKRIWufpORSKR1nySQfGEm2rtwIgARcqAnWIrMZECW6TM5bAxhFMjn83ILzHXtET3YHB6A5KR3EQjVucAhuiAPj3GdeeaZrERfdNFFCMZkGf3IpwyKwg0wgVQ00f01CpQXdTuCEI10zednPY4hCtCREAOsdAfW9EsmD3g88OAjd911lwCE5RwCFd2nQ0pzIlQAySgQfLbEQEf5zfxNN92EbOeddx5rwcFcpFjmE1HRLJUIZiSiMddEXaXiga+uoLRizeEHLdrZagT31IN8YZo07bMRgcghwZwHA3fs2nPFFVfceeedXedAXS1RmBkSgJxnhSGZEE2sC6YXd95xx5e//OVrrrkGgJgJEQYAiHENhihM+OGT8ANP1R6vfYnWul+FySSartvp4SsABTPyFkDQGaDc2gQjqcWgxtNkPC/ATD/fWgVQCMexmOQTQCjR9ZCmC9ND+ZFqs8zktVQqcvUcTyVHxodklrpx0yYqgs4tt9wi1Zk4d21npTNL5WCslOEMgiUxMjpejNbmK0W+pjKEw2qsGUly3deoBy9pqNQS6XikdVkHlXDGgcgVwEpbe4zt+wRQr0PKZbPsKszMyqoPJ3ewAH3oUDra+YMeaYFpbK+mVjSfXz/KZAsCZAxtDWexsYEUc6NS64ccPHSU5NmxVuhir/7IFAaAkvFgMisX5DywkWxdYaHI8NjhFzdJ6HIBrFckW1F6aDxaPfwbWSEDM9gILaBTLZcJLUzIcukMoYjcXpFGG1JhAEiukfD+YG5gd2MvNwryQ4Pc+jqwb78w0QEQ+q00K13bT6WDnxA5bmRiRMlCLViXyvBGI2681Os8/0YckmmZm4w7bgygrr7tK7NcKqUzuRO3bDnzjCfvfnQvq89ytcwVu2u3naHjNYfASDfdJuG2ZJQBLZWKJ5jgM/JyAmzesJFnbclbiMvCnL5813flMEQgLqi4htm8cdPzLrhw9+69N/78pgN79zGPlrlOR/jBY70WDPt25iINDA4Fd9ykUDsH9WbrJxzRKHMg6Nm0fsOFF1540QUXMpaRLfYv0vTx2x0GgLg84c0V0XiMR9az2YEnnXra/oMH8PvDO3fg2A6A+Hq8ItDmE7Z2FbpaD+7mMp3OpjP5bI7fkPDw/zOf+UzslHXRFl2Hn5jWFoF8er1Lr3OxUa9OHpxat349N0O50N93YJoFaF5JwGMbXQHq1U5XdZczs3VVuHDLZIPf0suqJr8P4WTgeSNetkmwwlTyDaCFTrOckHggzA/Vh0Qi3YdhAOnWR711BpB6iXQbaADp1ke9dQaQeol0G2gA6dZHvXUGkHqJdBtoAOnWR711BpB6iXQbaADp1ke9dQaQeol0G2gA6dZHvXUGkHqJdBtoAOnWR711BpB6iXQbaADp1ke9dQaQeol0G2gA6dZHvXUGkHqJdBtoAOnWR711BpB6iXQbaADp1ke9dQaQeol0G2gA6dZHvXUGkHqJdBtoAOnWR711BpB6iXQbaADp1ke9dQaQeol0G2gA6dZHvXUGkHqJdBtoAOnWR711BpB6iXQbaADp1ke9dQaQeol0G2gA6dZHvXUGkHqJdBtoAOnWR711BpB6iXQbaADp1ke9dQaQeol0G2gA6dZHvXUGkHqJdBtoAOnWR711BpB6iXQbaADp1ke9dQaQeol0G2gA6dZHvXUGkHqJdBtoAOnWR711BpB6iXQbaADp1ke9dQaQeol0G2gA6dZHvXUGkHqJdBtoAOnWR711BpB6iXQbaADp1ke9dQaQeol0G2gA6dZHvXUGkHqJdBtoAOnWR711BpB6iXQbaADp1ke9dQaQeol0G2gA6dZHvXUGkHqJdBtoAOnWR711BpB6iXQbaADp1ke9dQaQeol0G2gA6dZHvXUGkHqJdBtoAOnWR711BpB6iXQbaADp1ke9dQaQeol0G2gA6dZHvXUGkHqJdBtoAOnWR711BpB6iXQbaADp1ke9dQaQeol0G2gA6dZHvXUGkHqJdBtoAOnWR711BpB6iXQbaADp1ke9dQaQeol0G2gA6dZHvXUGkHqJdBtoAOnWR711BpB6iXQbaADp1ke9dQaQeol0G2gA6dZHvXUGkHqJdBtoAOnWR711BpB6iXQbaADp1ke9dQaQeol0G2gA6dZHvXUGkHqJdBtoAOnWR711BpB6iXQbaADp1ke9dQaQeol0G2gA6dZHvXUGkHqJdBtoAOnWR711BpB6iXQbaADp1ke9dQaQeol0G2gA6dZHvXUGkHqJdBtoAOnWR711BpB6iXQbaADp1ke9dQaQeol0G7gmAJqfn0eFSqXC58zMTKMZ4V8zcrR/UqbeiPCvWuNbULhSrbtErd7s1YLUWtiLq1Ku1KhLgVK5SqZuQhaxLrHIfp9312o1zE8kEvF4nIR8Dg4O1lA4EolGo/LJ/7eSkUaQ3bk1m81GsCPGB2m3m0xpsLMCRXucla3qUT6OdB0k4vFW395uYQYIUSTqzM7OptPpUqnEZywWSyR6KBxQFSgpn0c0jVKDNFikUol6vYnkyWRAZK/NYfb4dg4XJ9ORJyT1aseL/DADROxhQ4bdu3eDTrlcrtfraDZfLPO5cKtWq5IJZCTkkwTBJpVKsRfhp6amxsfHaZPw5gISZciRz3bVO/JbVVJ8kk+DxdaWyWQG8zkvWOlqZJgBQuxkMkn4+frXv759+/bh4WHUAqOh4VFHj2MF77g0CVjh0zFEOwQzKNyxYwckkS9fHTeOHhJC7cJd4EvvAER1yjAbm5ubawF0cldtvMgMM0AjIyNogOpIhWy5XC6bzSKezI0EDqGEGIPwEp/IgR6Z4ghniM0uatEUOMouPiUC8Ukx+aQ7EjJuLgSIZtnrStIgJenOC1B6GRlmgOSYkR+xZfYjg1EqnRUyhB75JEcwIuHCj0BGC+SQn8/nyRkYGGAAkmLSBWmHCwkBtCtAlKQ1qtOgbC5c9VJIeX74AeKMZwBCdRKMIAwZXNUjZDs9EgYoJvloJqHCRQsSjFzEIWbi8IH2pLvSI2AJUh0M0YK0THUS8EojtKwckaOb53f8PPqxsdzDpXcwuY0lCvOVeCLLv2otCDBsHeHHDSULFYUYZrtc/0MPwyLtASKfAEf8EFakFmk20sAhY5z7lAT4UgBuGLxGR0dp1iLQ0UUMw15ok4CE8EQR6OGooIoNGhyIEl1c0ArDkR/DMYR/CDsGJyxSxIUT4AAXAg9ISUQRgAQdKcYn861FWgzRbgNocTFlYJJyEmBkci3DVvun42nxRsNSwgBaXEkumigENLAi0xcGMiKNDG1Sn718JTiRcFdhizftfwkDaHENAQJcKCdX4G5FAFzcfJm9bvq8eIshKmEALS6mxBuZ9AgxEopkSkTIkSspChCf+PT9wmpxj7SVMIAWdxeRBobAhcv46enpffv2cREuy81clrPCxCZhya0FLN5oWEqsRYBk2suI40RsnyYvVFaCCgMZd0LOP/98mUFLFTLvvvvuc845h69AJvdce2FEvlypSQEJab0KLzRDZ06YFxJ1ejxkVhlAIRN0tQ/HAFptj4esPwMoZIKu9uEYQKvt8ZD1ZwCFTNDVPhwDaLU9HrL+1iJAC1d9WBmSxaGu6rJ+yLIhazw8yCF3M3iOh0ZYFuLZtHXr1sljPaw3kjjKjTC6kEeRpDuaar+b1rVr/ZlrcSFxqaqMjY0JLggvNy5Ee56PlgcU5YlpmmUvTCy1fa/LG0CLy1coFECH8MOPKAhF/LpDEmAEMfKAs9xtFbwkvXi7oShhAC0uo7vpASvAxP0vQOGTmjIGyTP2wk37HZLFm/a/hAG0uIZEGuCAFaCRO2IQw4yHtAxYQBOOG1uL+2JBCQNogUsWZDDFYZMJ0OTkpMx7GNEcPdRg78K5+YKWQphhAC0uKoEHgMBFhiqe3JCRi0ygkUsqEoxrfJK5eIshKmEALS4mwUae6GAskzTQAIo8OCZpWhGYBLXFGw1LiZADFMxdYsGPckSvI/Pc4Fv7bHfR0UdCjkyAqMujP+RIsHGxR0YxGde64iGxSj4pgDEyc+pa2JfMtbiQ6Is2XthpAHkhk14jDSC92nhhmQHkhUx6jTSA9GrjhWUGkBcy6TXSANKrjReWhQGg9vWV9jS/+4pHY3wGK8S8J6gZfOWfbLL2s+gKECpy74JmWYbmJvzExAR3M3gSiPUe+Wkz9+f5ypoQr9Dj8SAa90L45TIy5AuJy+Imd+OChURAkec6+JRHzACImxuyJEjJ9vXJZeldeSNr63R5YmJwL0yeIJMfMkv4kTsYLEkTlviUwANAstj9xDrysZZFoMVVI6jIXQsAAhEAYvACFBnCeJmwPFlGDiXdMx6LtxuKEgbQ4jIySBFjKAcoMkLJzTWGMBnUCD+ARZrEWgPIhrDFAZLnNOSmKaVBRF74Ip/yykTy4Uym54u3GKISBtDiYjJUsRF++Ayu51rPjsljiiQYuWQCZAAt7sq1WYKQw+YWCGQ+BEBs8kS9DG1r7VEygSEMc6Cp6dmRkSFeQseCTS4XPOs+OTnFa53j/E2daGRurhxPZXft3btxy5a5uQJT4EgjuNgOhqTgT/AE/+RrJpXhKSEeHeKvREWb0Ug9Eg1ebNdk5hxNZku1SKnGXxwLCleLwZSoVitD1dZTtu2bnAloyuTnSgFnrZlS6+VD8ped3N93iieL1Xo0keJlVRBZnpsfGpuYmS8VGsEf0OAvkxHl0sk0gwKVW7Ou4I2wwq5M28nU9grYMADECl4gVutl8pFIABCvA4cL/pQbOuL6jRs3rl+/fmhoCF2DV9bHg6MOAGr7qzzkoM1h4Y88biZfYTGg4fGZfCXkSFiiHfjhU76mM8mu5eUyTdoEizQLSK2/vZKMpZOp4M3Abj4BxMlk8OeFpFOZszsDpHEln2EAKJ5KECke2bXzoYceAhT58Q2/3pqeKcjCTIVZb722d/8+1mzypWLjiFKipfsEta7CC6BOPwcZusr6ocydBaDg8j51+LeF7e1THeCEWtIUA3c2MkvVYCWpUasnokHIIQbyV1igZ/tp24TpjnaUoCNmhAEgHlgtlcu33nrr9ddfj8cBiFsK/GGUaDJYIEb+e++9d8OB/fF74oxxRCD+cmWHBnKKu6dROwSTvR2Z8lUAojUJZoeRigSgLGRRptuuJLEHetgyuVQtWCio8ucXkrFgKbI0X8TUj/3vD9Nge1MurYehMACEWIXi/G9/98BPfvZTPA4inL7Bcl82SPAnKXgz5szcLFSxF7wcQG5oaEcEbTpY4fKqKxBkIjYbCdnka6MR/AmErgCRLwCx90hh6jeDP6HAn7tr3a1rVGuYWioWKx+sYBjlHS6uWQNoOT0Q/EXTZKJSr83OF3B3fngoGU3HU8GrDtgghkxOdFRhKZkzuxELhhhHj5gSfD3yd3NEp8fUisdkDznBXz1tfQZb6xZtJBrshYtgwgU2/EXLRPehkIEp4OrIn2htcp+Xe738j994xHj4HxOCWRs8MhXnD7sCrgQt5ywDaDm5aW+L0QdK+GQIY84bnM1s8RTSsnoTJJnkxuO5gQEAYkGnva5TRWLJETaCEOJ2dSTaq6A6XyWu0EKLy8N/vVeKucJytc9XlxMgE9QPrrkYxSCRXiucC633TQeXZo/fqCjdrZQfl95uGIYwFCtXKkwomEigJPMhgg2D1/jEBjyOErjF3Y5AqmbjcRMLR4yU7FCdr8jZTpUDCy2FGOgRgCSn0TwsfEdT0k6Ln8MDnPBDI1hVrwa1YIj5M/azHcHxMY6Xru+K1wgDQBzDUCYXazR5UzxTZuQpVyvDoyNlrmvSGf5EO5GpVK0NDA3Plyvx1gVz140g1iWfl/p0zW/FJ6LaY1WCUBKhcDwS/G2NhRtRUDLhhkTw2RrRIo1qpBlNJYM7a9ValXGWXYemp4ByYSMOvoW7jktOFxOPix3WqaceMIA8FU6L2QaQFiU8tcMA8lQ4LWYbQFqU8NQOA8hT4bSYbQBpUcJTO8IMkCy3dKzmSaanaik0O8wAKXR3+EwygMKn6aoekQG0qu4OX2cGUPg0XdUjMoBW1d3h68wACp+mq3pEBtCqujt8nYUZIFkBeuzhm5Z62p6n8R2pMAPkuzZe2G8AeSGTXiMNIL3aeGGZAeSFTHqNNID0auOFZQaQFzLpNdIA0quNF5aFGSB7HmgVEAwzQKvgPuvCADIG+vKAAdSX+33kcqwAACAASURBVKyyAWQM9OUBA6gv91llA8gY6MsDBlBf7rPKYQbIngdaBb7DDNAquM+6MICMgb48YAD15T6rbAAZA315wADqy31W2QAyBvrygAHUl/ussgFkDPTlAQOoL/dZZQPIGOjLAwZQX+6zygaQMdCXBwygvtxnlQ0gY6AvDxhAfbnPKhtAxkBfHjCA+nKfVTaAjIG+PGAA9eU+q2wAGQN9ecAA6st9VtkAMgb68oAB1Jf7rLIBZAz05QEDqC/3WWUDyBjoywMGUF/us8oGkDHQlwcMoL7cZ5UNIGOgLw8YQH25zyqHCKBmLMK/SDzSTEaaaf758p7oWizSiEWb8Vgszn+xeDQWi0TjDT/gDBFAfjg8bFYaQGFTdJWPxwBaZYeHrTsDKGyKrvLxGECr7PCwdWcAhU3RVT4eA2iVHR627hIeHZCs6yw0uMkLoeOxRqxRb1Sr1VK5ViiUp+KlxtDw2OHC0WYjUo9GosHXaCTejNLUwMBAqVSKx+PT09MTExMHDhzIDA8vbJycRqMW1Iu2qrc2SdNK+1e3l2aHhoYwpV6vNxoNCmezWTKjkSRl6JqW5FO+JhpVVn9qbNUqH4VCgbqDYyOk5ZBphPUh2uGrpF1fxz3hE0C9nIWweDzaaKZSKbCAhuHh4YkN63fu2uOqHJa8BUEqmTp06FC5XKZWPp8XScbHxycLhR5dPG5Rz5HUrAZgtW+yC26KhfnApGg0mWRVM8JXAMoNBIAKB/IpX5OJJDawfihLiNFmJBGL0whwu75cooeFxy07DADhvFqlChBzc3OVSmVycnK+VASIsdF1ohCfxIpAs5afm7FEIh4fHBxEY1DjvJ+emqJibnikqw7R2OFI07E3nu0yAXBhkpjBBqAEkpmZGeBuVivSgisjiWqjTgJiJGKRlvxEIiHctNOjjaQwAFQulotzhVwmu2n9hkq9hgzlYmn60NSeR/d2nMHytVIJuDnxxBOnpqYQaWRkhE9qzVeq3QFqBiOO2+XS8UQ8wPHxu2ScozUiYr1WbdbqtXKlVJjfsGHDLTff3A6Qq1gvlcknCAlDACckwVwHLlQxgLpq1FdmKpncuHHjy17y0pNPPnlweCieSjKNyOVyJ2zcJO12nMdz82VGur1793784x/f+cgOJigIhmyJdKarHUQHJ7yoLp/UcQCR44Ag8EADgxdBcTqfl9B46imnXP3d73UFqFEPwKU6tQQjSaTTaZrqapKezDBEoEScm4+Rp59/3jnnnJNIJSRWMG0pF+e7AhSJptKp2H2p9IG9+x64737gQzykSg92H6pkEu0QcYnyfFGgkZyONIwWi8VGrQ5AjI/rJ9advn27g8wVxsJk8vD0XNqBHkkkglE3mDg7XNrTShgKA0ClYjmTTRdL5Uq1movlGMWYAxEAhnO5rl4ulhsolk6msunM6PDI+OgYESuTyTDp7Vo+kUw6RFwiKJkObvh3bGRDALMrmcHwCT1EOKZc2VQw5B37Vq0EcybalwiqkB7MCwNAzBU4klQiSRRJJPiPDGYPERkaOsYvvjIyUJ7wgLSowicAUYWL5q7qxnhCZMEWSFtrDW3sOhIzROM08+VaPZh511k9aDAHmpueYRoUzORbm/TjgKjWS0GoaW3Snnwm4sFlv/LNJ4DEvwsdGm0dRDyJ0AEZnOZxCSVHFWDTCZsqzdqmk7dmMwP5iXWEiniPCMGjOS1IHreRU6sH/Llcwoxghg1D46PkZ4fyBLbR9RPpPbmRdeOta8Fgk0jn4l0mnpX8rp9uGsThB4sCyjbtczRl7jJzOj1gAHV6xL4vyQMG0JLcZYU7PWAAdXrEvi/JAwbQktxlhTs9YAB1esS+L8kDBtCS3GWFOz2wRgGqttYAWfuRZ25IsGzT6Rv7fgweWKMAHYNnrMgxecAAOiY3WaFeHjCAennG8o/JAwbQMbnJCvXygAHUyzOWf0weMICOyU1WqJcHDKBenrH8Y/LAWgSIB4Z42otHhuTXFs1o8Jsx/q305p4Wko6OPEO28h2v5IGtRYBW0p9rrm0DaM1JvrwHbAAtrz/XXGsG0JqTfHkP2ABaXn+uudYMoDUn+fIesAG0vP5cc62tRYBqvJY5GT84c2BgeIB38gwMZGvVIi8YSmdTzWgjkYpX65V6szY8OsTvAvm5GQs2/DiLl63IRlqWcGRdR34X1v6jMH6ZXCqX05nM5KFDyVSKmvweLJPNSi2HmFR3Py/0FL21CFCxFPxmnjdRsc3Pz/PLVN6kAQeF2TlezBNpNPnHr+15qU+T35VWgvdEdd3aVwLbf/QoP//jITVe20A+z6zR0ezsrKeIHN3stQhQNpNl9ZeXH/DynkwqnctmedvLcH4QmNAeyYk0vBmD3z4DQXuEcJRIQkIRny4mCVIDuRw80kWSBx3rdeJVfmAgk04fXQlP9/r00+blcnG89a47ogs/XOfVTwf27Y/EghygIRSxNxVP5NKZ+dm5gfxg8Gq6WKxjuBFQGKpcEHIJStIOL1cgpBHbDh48yK+b4dL3oaqX89ciQLzXp1iuFGZnk/EEt8OINAFPzebWrVv37duH3sG0htcbtoJH67fvwW/aKSDTndbO1jvFeCnjkU34kM9dO3byxsUN69bTPi9N471olH90565eGnidvxYBYmCKlasnbT3xlS97+fnnP2NkdCx4FUsiziunfnXrL3mVWIBMvVEplZkGzc3MRmOBlxxAMh8KvjaDl2BKvhSQoY3XcWzeELzwChZ5GePo6Chv/zj99NO9BqWX8Y97f1GvQqHLZ2pcT6SSe/cd4LcY+aFhXvKaSsW/8c1vv/3tb9+2bRvT3mA4i0Z5zRnvcE2lsxJaJPa4CMTbOYQb5x8ZyIbSubPOOuuyyy7btGliaqowMsLrYOuZTJyBsKsnBbuuu/RnrsUIxFs1Dx2aXrd+/fp1E0yH+DlPvR7Mgk496eTqXKHBq3Z5b1CtzjVUhbdWzRdjrdfELIxApXKpAx0B6JG9jzAayrUY83HKMMsuFCqDOXUvZ+kf0LUIUDyRmli/jjdnBu5rBu8UCt5E2IwU5mdiueTQ6DDBKRZPRHiJZiyZGhnl9VVuqHLX88ShSjWYLRGu+KQlWAEaPseHRgYG87n8AJnZdPAmznSimU3har8f/elK21oEqKsjyOy4pHLfuRoPSGu9iRc+IIaIEgxq0WAKTZp86jqAmKL36iJ8+QbQY5p2ABQsP7c2GYYkzFBavgJQvBEMT/JVAJLy4aPkKEdkAHUBSDhwAIGOG8KCmPP4jfAjbMEQCa9nxEcBpdcuA6i7Z1w0Aqb2d2gKSQs/acVldm8xpLkG0GPCCgEOBWa8Ek4ChlpbByWSz6c0IXGLz8OvJQ8pMR2HtRbvhfVS1g1N7axI4aMMTLLrKAV6dReOfItAj+nowgxZpOWamwQzIHI65z6P/y5Dns2BwnFWPMGjAAI3DJHoCCodkcZ9JeFWCwWjJ9i9n9VsCPNTNzVWG0BqpPDTEAPIT93UWG0AqZHCT0MMID91U2O1AaRGCj8NMYD81E2N1QaQGin8NMQA8lM3NVYbQGqk8NMQA8hP3dRYbQCpkcJPQwwgP3VTY7UBpEYKPw0xgPzUTY3VBpAaKfw0xADyUzc1VhtAaqTw0xADyE/d1FhtAKmRwk9DDCA/dVNjtQGkRgo/DTGA/NRNjdUGkBop/DTEAPJTNzVWG0BqpPDTEAPIT93UWG0AqZHCT0MMID91U2O1AaRGCj8NMYD81E2N1QaQGin8NMQA8lM3NVYbQGqk8NMQA8hP3dRYbQCpkcJPQwwgP3VTY7UBpEYKPw0xgPzUTY3VBpAaKfw0xADyUzc1VhtAaqTw0xADyE/d1FhtAKmRwk9DDCA/dVNjtQGkRgo/DTGA/NRNjdUGkBop/DTEAPJTNzVWG0BqpPDTEAPIT93UWG0AqZHCT0MMID91U2O1AaRGCj8NMYD81E2N1QaQGin8NMQA8lM3NVYbQGqk8NMQA8hP3dRYbQCpkcJPQwwgP3VTY7UBpEYKPw0xgPzUTY3VBpAaKfw0xADyUzc1VhtAaqTw0xADyE/d1FhtAKmRwk9DDCA/dVNjtQGkRgo/DTGA/NRNjdUGkBop/DTEAPJTNzVWG0BqpPDTEAPIT93UWG0AqZHCT0MMID91U2O1AaRGCj8NMYD81E2N1QaQGin8NMQA8lM3NVYbQGqk8NMQA8hP3dRYbQCpkcJPQwwgP3VTY7UBpEYKPw0xgPzUTY3VBpAaKfw0xADyUzc1VhtAaqTw0xADyE/d1FhtAKmRwk9DDCA/dVNjtQGkRgo/DTGA/NRNjdUGkBop/DTEAPJTNzVWG0BqpPDTEAPIT93UWG0AqZHCT0MMID91U2O1AaRGCj8NMYD81E2N1QaQGin8NMQA8lM3NVYbQGqk8NMQA8hP3dRYbQCpkcJPQwwgP3VTY7UBpEYKPw0xgPzUTY3VBpAaKfw0xADyUzc1VhtAaqTw0xADyE/d1FhtAKmRwk9DDCA/dVNjtQGkRgo/DTGA/NRNjdUGkBop/DTEAPJTNzVWG0BqpPDTEAPIT93UWG0AqZHCT0MMID91U2O1AaRGCj8NMYD81E2N1QaQGin8NMQA8lM3NVYbQGqk8NMQA8hP3dRYbQCpkcJPQwwgP3VTY7UBpEYKPw0xgPzUTY3VCTWWHH9D6tFIMxJpxCLNaKQRjXBu1WNBIshdjq3Z7N5QNEofvm4WgXxVTondBpASIXw1wwDyVTkldhtASoTw1QwDyFfllNhtACkRwlczDCBflVNit60DtQnBOk2zmU6mEslkrdFMp0ik56Zn0kNZlnAajSZLRPV6sxmLNutRysYa8QhLOFHSwQJPjC0ej8Zi1WqF7EazGokkkqk4S0vNCOl4NBpCb4fwkJ7wqdmipFEul2u1WqVaq1Rq2VweKho1qAl2Ner14F+AUoOcSqUSZLbSAlA8Hg8wokqjUa1WI9ksnyxMzs5N53MDqXQIvR3CQ3rCAOXSmWw2O5DNpTLpWoBKEI0yqXSpPLewTaDJZbNdAapFoslkEoyolUqmCEbDw8PxGKEohJsB9Jioe3fvKU5NTx2czA3mk+n0fLFcKBTjyeRANkmECcaqaIzxqh7c6iAVm5o6dDgyNRrBvmAECyJQLpmiUXYxIlaq1WQ8ViwW8wP5EOLDIB3Ko3piB7Vu3brR8YmhoaF0Op0fHh7IBaNYMp2qlAs0GNyvak2SSMi9q/HRMSCpB9OipgOIxPzsLCRlMpmAs2BKVAUgJkfZ3NATM0xzLQPoMXXmZ+eatXphbm7//v3Ds3ONSIypdC6XS8SDaNKaAh3eZN4zc2iq6xBWLpemp6fn5+czw8OJeCIaj40lx2wI03waLI9t01NTzIHGR0bBhUlMNJ4kuOQy2WJpth0gBw3zYpduj0Dbt29bv349gWd2bjYRi+Vz2eWxT2UrFoEek+VNb3pjPp+/+JIXHTg0mc3kmtFYiQuxbDbZIwIl44kOgOQSbN+BfYxZ6ycmGOlKxXng43otmwknRofXMFTCbUZ54AFbifZAJM0mGkCa1fHANgPIA5E0m2gAaVbHA9sMIA9E0myiAaRZHQ9sM4A8EEmziQaQZnU8sM0A8kAkzSYaQJrV8cA2A8gDkTSbaABpVscD2wwgD0TSbKIBpFkdD2wzgDwQSbOJBpBmdTywzQDyQCTNJhpAmtXxwDYDyAORNJtoAGlWxwPbDCAPRNJsogGkWR0PbDOAPBBJs4kGkGZ1PLDNAPJAJM0mGkCa1fHANgPIA5E0m2gAaVbHA9sMIA9E0myiAaRZHQ9sM4A8EEmziQaQZnU8sM0A8kAkzSYaQJrV8cA2A8gDkTSbaABpVscD2wwgD0TSbKIBpFkdD2wzgDwQSbOJywkQb93mUAuF4C9LsPF3k/bs2UMi+KsjkUjw548iEf6SkvuUYrOzs5Lgkz8PwOfk5KTLkUSpVOLPD0xNTbl810tHybm5Of4cQUcmndKCmMGu4A8XdNvYxQvCO+pyUJLJ4Uhdad+ZvWvXLqlCMVqVA2xvhHwp3K3P1cjrOKLl/bqcb6rHs7yqPZE43OZNN91066238hdMxsbGXvjCF/LHAzAd/1KAv0VC+nvf+96OHTuQ9qlPfeozn/lMCrAXj/K6ePaCwv3333/XXXc99NBDgMhfn9i0adPWrVtPPPHEF7/4xa6XgwcP3n333RTYu3cvkIEgf2bgpJNO4m9cDAwMnHDCCaeeeiqF2RASGlL8GbkjFna4khZ+8IMf8FZ5WKeFSy65hJKYRBVyhBv28qdYSGP8oUOHSGDwW9/6Vv6gEwn+4IE0/vDDD2PMxo0bt2zZwrvul1czVa0tJ0ByYPiXBO778Y9//G//9m8IAD3PfvazJyYmSONid/z/8i//Ah9o8/u///vAsW3bNqmLYI888sjVV1+NnL/4xS9ISxWpi67bWxuZ4AJA73nPe+677772uAWgCAmX559/Po1jAHURmPIwJIAulIFGvvjFL957770Y8IIXvIAunvSkJ1Ge1uCGT/nDBlQk6vzrv/7r7bffDhygxtE95SlPkbOCvZwV//mf/8n5c/bZZ7/pTW8SUzl2V2Bh1/7mLCdA7Q7C448++ighBNdAgJDh4hPQINLOnTt/+9vfisepK5u48oc//OHHPvYxqU4Of4KJSEaDRJHf/e53NC5/zo0AQFNIJbWIT0QCkNq9eze7br75ZkIgwYnCYEdMEjN6qUVTv/rVr4grFBgdHSUEkpDASQtSV46RNq+//noZlOFSwpI0S/onP/nJF77whTvuuONnP/sZCHJigC9jLkfRq2t/85cToHYvwIdTiwTisVdUJyHDAePLf//3f5MmWiC8VGdEQ3hCl9BDCLnwwguRgYGJseyGG24gwdAghZGTjiT93Oc+96/+6q+e/vSnMxLdeeed0PmP//iPhKVvfvObVDnttNMY+0R+JO8qGOYJNOwFkX379pGQgclVlBHqwQcfFHoo0DFtohHsJJixC44PHDhA2GMw7TVudrXEo8zlBAgUONWI1Zy1bHiN8xgggj+9Fo3icWTAvy6YM6gNDg4yNYYwYYvTF49/6lOfuu6663Aic533ve99z3jGMxgpKMAI8pKXvGRmZgYgRFoaRBgYoiI5TDiY8bCdddZZ9EtH//RP/wRDjIY0BUCUIRIIzQtFoqSQjcEMUr/5zW+oBR/SBeWZR7OLGTGBja9EFIxhcuawI5PCJ5988rOe9SziEOhjjMQwvNEL3IWWeJSznAC1z29IIwa6siG8TEGcX5AcMdC4fRQQdcnE9aSJSX/wB3/AXMTVgiGmNaIxpzUcCFUCH6c7Ey8pjGagyeznl7/8JfQQEqCBEEXoajeyQydmvph6yimnkE+MoS7DGe1wCBLnBCDG0J///OeUgWMAwmC59IMPCTNgh0m/93u/B8d0KgB19BWar8sJkLjPxWrcLRfbMncWDVz4YRexRwq4ySnq4m65YObcZU6Do9EPnQhXiIq6MppIIBFMqYKKaOaud0izixYY+0Qq1xfY9YoEwt+GDRvEAKZu8M3hOMqFXYY2GaE2b94Mc+zFfo6LvbSMMUzXXv3qV0MVCXpnL2ki0FHY9Zen5VwHEmHE3Ugo7haeZJeco5JmdKMMGwW4bIEPnMhYxjgijkaJ8fFxEUCgkdgg6qINgwtsUUxGEMrIue74IEEYk9YAjr5oDdRQlAT5bJThK6ZKprB48cUXs4sw86Mf/YiScgiUYT2Cr1xdYiTj17ve9S4Oli6YLGO5GED7lGEGhoWyDCYBWHpnFz1K1/LJlB/7ORC+yid1SVMLm11JZnViMzM8TieXj1UMqXKKukxy3KoVmVRcuW05I9BSrWz3oxynaCBhiU9hkWkHDsK5OIswJkrTF/EGMRhlGEpwK3VFPApQEUXRm5FOeCKuCKO05lqQXc4MGqEjuGTooXHqPvDAA3QkXGIAJFGAWRqWsO5Aj6K0nCpyCIACN//8z/8M/YS9v/iLvxgZGZEWAIUBkWIkmEVxxQcWTLawn6be+MY3csUAdiwQSDD74Ac/yMjLSseNN94IVW94wxsY04lkNIIN11577U9/+lPCJHUJtGecccbznvc8zjH6Am6hdqXpwTnHEyB3UkooCqxJJBCY48dBuIwVQuYQ5LNyg3IyCMrFHYjgKRxEFeGGcw7JKYxDKUN5Tm7mK+QgIRNb6Y45ryz6QY8EAwqIo9GSHArQKTbQGqtQnO6kJdox/NEmIylVzjnnHLpmwxIxQBohh7UJriIpScWXvvSlrBIJQA6j73znO1znE96EPFpjIyQDEB195StfYYjkEACIFYrPfe5zt9xyCwVkqQl6MIkyMIp/pC4tU/0v//IvmX4xfyfT+VYKrNynCoAkBshhc+pfdNFF3/rWtxDy3//93xH7+c9/PuclwogXRCcZiWSBgJLs4tR0K4Q4lMwPf/jDcjXHTJxLObkO4lPakTjkuiZTliKpyNmMHgQSVhmY8cCBTHQoI5foGIPYAE3CgSuGoRyc0RQEEx05Hzgi+sJg0gzW//Ef/8EKqsyiIJt5Ho1ztjDBp1PSshBFs1Dy5S9/WeihEcwQywGLXZgHTJwYHBFTMa4hcBcnAA0yOaMknWIMZjjXSfXl/TyeAOFxCQPth4SnXv/617NmyGoQ8hPtcejrXvc6xiM8wjiCRwAF33H6sskwRwvifb6SySIekf8f/uEfyGel+OUvfznrQNKL86aEH1Fd3E1d9tI+X5GB8xtdWY6iLkoAKwbIrRX6Ih5QmI2Y4e6L0TXxT1DGbPhwSwYSElh+ZJECvekCq175ylcCKyUZK1mhkN6RH4gx5m/+5m8AjqGQMvDKicSYyEoY0YvwhhPe+973XnrppdT6r//6rw996EPYxtr9ueee+4pXvAIzOEB6cQfY7uRlTB9PgDgMDtLNSOSoOE1f9KIXMUww+nBZBEYghY/OO+88ruHZSwCXa3h8BE8uVsPclVdeyayCs//Xv/71bbfdhuup8kd/9EcQiahMqiiPqAJuuxMFRDSjNQlRT3va06655hpymCBzQY4NdEc0IiZRkZZZX2b+Ib3LLF5OBorBkxwULNIpjVOMcEXU+f73vy/0vOUtb2EOTlzk0GiQIyXK0gKFsRAbaBN6nvzkJ//5n/85QypAM+tiZGf4wwNU4ULvj//4jzk9SHNEzJa4PceYyxyf1VQWacU27FlGXBY2dfwBEr/L6YJ9jD5MKl/1qlcR8wnUkMRUkXiOR1hUBCMiOacsiuI13E1CjoqZB/n4i4riYs5OTnGakuCPKjQOE2jZcXaiNGzJnTKm2zR4wQUXEGZgkShIJBCq0O+ee+5hL/NxijFnkvObilgiJwNd0JQARHBqnx6xIiULSEzSuUf2nOc8x+khE3wqUp2miDTSMlEKgFwYIyISY6glYVXo4StuASZ24Sjc9Yd/+Ie4i3wZxVwvK5E4zgDJIQlDkpYzhikqHuQs/PznPw8N4nfO5k9/+tNcaMi1DOXxOHX5KoMIgV0agSrEw6GgQ/kzzzyTEZDplKDjkBWR5LwHLDiAJLghh1OfugBEyAECAQh75MqcHsmhurRAXSFGPtEbAzCJ6CKX91hFIwRFmYAjPGtUYirQMxjRgqyLAhA2YACmciLxkILQAzqssxNlSVCRY8FCEuRQHVMJ25RnLzeDAZ1dtMNGgxLkpLtl/1zOdSDxJicQVsKBXDSRFkfjXI6Hr3hHfIT8KEEO80eJGSjkhiRuZTML/uQnP8n5Kod91VVXceIy3otHaAe/oxBSUYvRjdvjXIqzkM3kgItednFX/E/+5E8uu+wyIjyN0AtCYiEtSKggEzOoy0nPLoRnpEAVLoy5hy/GM4ySYC8zGCHgne98JweFhDBH14xNzFo4XsSWWx8yr6cKB4iRVKci9mMzHBAhTj/9dGkTXrGEfL7SFAnMJkEsYeR67WtfK9WpRQGu8OVCgbkzN/lxKaELeuiUM0SiHeVZQ6cdmqXAitKDSasagZyb5EzlqyRQVBISfkjjPo4fXSGGs41bWix7YC5SEY2YoBBXkFAGLHE9Tkd+zkIcysasgsnEV7/6VaIISHHSc3GH9ykmiFNLNuGeHuWUpQBds0vuuIEI8L3sZS9DCa50iIIMXtK7VOQoaLCjTdd4ewJSxVRQk7py1F0Lk8nRCVKuAEay8RUL2djL5vbCIrGHAjLbA0TppVf7y5K/nBGol0HOTQIQRyWHLV+pRYF2gNiLizmfKABDnIWscDCTpSQBn5kEkUAiFj5CFRqkpMhPGapwJUL8ePe7381Mkxxm1tTiekr6dW6VhHzidFrg9AUUiZ0EITnvebaE7ijGdRmgMOHgsohmncBSkRzMaFe0wyHECXJo383bJCR3FHNfQaSdAMigBSwkHwuF8vbuZEESTxL/JBqt9AwaU1cDIDlp2n2xUEKBST5xAUdOtGBskhzWx97//vdL2IcGLrLk8VYAEk9RDJIoLyKJBmDEPFruhzC6EdjFEva2n/qiAQ1KXzKCUIYxQkZPKjK7oq7MoAGIgYmOkFAUggP20ubRAZLe2wd3qkhY6sqQjD74imJ0QUkpTL9uYGoHyC15EzVdtOva8jJmrgZA6Mrx44iOsxO/CElOCRnvJbpwkExU0Ym6nLIssBJUJDYwVZQrZ8pQANloB5/SPoVBikAlsxAm40wXKMZAxkgkF9UiCZnSuwNI3CrzZdJUZBWABK3JrX4mWHyFSz45KIxxQiKYhJNlnHO0n3ICt+SQlq9isPt0Z4Wr2LVYR60+v64GQAggJ0R7REU2OWs5AAYdznsSogFnEuXhAEcwLeVTwGLqI9fYNAgKlMdlMvmQcYGpD7GB1qglDTLHlBYozNSYTmmNzfla4OMT4OgdC2WhiPL0xUSeltmIPYxfmMTlsYxfNCXjiPBHXSyRxntJIiZRTLxBMWmkV3knP81iA91JC/iNFuTA2+deJAIimQAACApJREFUhElpGSfImXYsM7NevR9j/moAxOjQHlHdUQGBkIHkbAKEMEQaN0laVEFaBiOZPRB1ZKgik4AhEraPSjhaGqQdYo9TQi76pCNxkDOGkEYLNCiXRRiGBgQhqpDJAp3cUuDKSx4ykashdMU8mqIdF1B7uV6M56DcOHv0cOVsEw9wUBwsGx2Bspx+7YgQJtnFgXNFJn2FBCAZhpxbndJ4QRAJrihaFz4iLZm4TJZtyKGYVCFTUKCAVAQdBOaTrwz8jH1CpCsAuLIogt8JRaAgPpV2XIP0IhMUciiGrkI8MCEbVQg/3CigGCsOQqEASoMCEBYuOl5IVKAkjUthQd95piMhR93erDvTaEGO0TmTupwqfIIOcLu+ejW+XPnLGYE4JPTjAEggA7MW/IuPuDrggQSxmLNEWEFsluo5fkYZrrMoJncAZGJBRRQFHRqkKXHHFVdcQRXa4TaCTI0pAzeMXGhMJkvD0jhf5eTmek2IIZawrEIXFOATI6lLL3zFWhIYRstkCkACIsWYhpNm/sRNUO5ScVfEjQ6sFLDSTXUgu/zyywVBGqFrpzoLj3TBKYR53M+iIyZwrEqwXkxJgBDV4VvOAe6WyF0/uaGBl+RA5Cg+8IEPyGIpq4XcY8ESmd1jJ+tM4E6bVJc1bmxw87nlwmVhO8sJEBCI4+T05SqG6ybSLN4gpCyhskyHEVxRf+Yzn5Gzh2Vi3EpFvCBPbCEMHpdhSIDATdwaY2UZpAgAVJELbHokAIgGuNid0GIG1HIjQiIQN0SxR4KHfMroQ0mUwyQhxjlIAgzrxa95zWvIlCkX4Uee56cvbAZcKYapxEs2SnK8EhexnMMR0Dk0uuP2iDwhyeGzwC3ACS6kKYBh4Cs2MCfDPzLpIUd8RRfyIyEGXCGeORllwI47/EzyKIlzhCTSGOmOaIUSywyQiCGfXK1w+S128+wLK8hECL5yUn73u9/90pe+xOnFHUQegyJEwQEexPWcSR/5yEe+9rWvuYddOPt5quHv/u7v5DYkq/soIcJIRyIPYgsZoECgovpHP/pRfpJBj7TPcznMwUkLKMgs5zQ5AgH5SM55T2tkEqWkJORRQE4J1g8FXPlKMYDmkwOR6zvSTPDBXW6n0whpYiSnBGmCmdgA0xw+G4GE8jTC2SX2YIM0jvacRUKAG6eI1jx3Ri80yD15zhCpxeLqN77xDYpxfvI4pdwIk7GVwiu6LfNKtBwqoRWn4HeeK+DmMPeA2P76r/+ae9FogLpkyrU6ayo8xuCeteBM+va3v/3xj38cmFg75joILwCcPBmII5jDMmqIDHyV2ah8MsnlSQluyIMp5cmkU8qA2p/+6Z+yoihjAZfiQAB5wg0Gi0jkQwxns5z07KUMcjL2cd4LKMQPuetJSTijJMCJPLQjQxs2c9FAXOFYGEHonaAicYUhDIfIQ4bMygkYjKpEFHmah6cG3vGOd2C2HA7t0ykwyYCIkRL2uL1KWAUdltd5hEPOJY5dfmHHIx/8As5ZhW2AK+fVSmFEDF/GDXOlNbn24eT77Gc/yyHJ4IIXXIhGG/I5jfCLM4CJKs+A4veOswcnkomLP/GJTzCWSXnCOCciEUtiBg6iDMq5gQzh0exv//ZvWXuUKowUVHHdwQEi8RXJudFBC1iIweSwyxXDTuAAO+7suq5JoC433UQY7o5BLZlgh8BCJ7tISxVpkMGLG3OyvNShKCeY9MttE9n19re/XdxIm+wSUznxuD/DU44LgeCpKSKudCeFSRPhJGeFPpczAmGinOWiBJ9Iy1FJPOAhLyQHKfI5RZge/f3f/z1TS9GbmI/ezFI5h5gfEOSJ6uAohZl5UIUHaBinZBaFgzjpBUcBjpYZR/gkMJDP59ve9jYiFjNKiXBIiHkSQqhLv7ArBpMmFjLcEPyxgQOhX5GNNNMgajHa8hCZyCbIoiVhkvbpl70cHYBKSKMkytEsRAIBPHGATE34bdqb3/xmwjDP7vC4KpmgSUdU5CiInYQfTh7KU1eemsVscZFYRTjhmoNeMImnqnEUFVlZINTJ7yrFQuCmZbmoXIjaMuYcvjBelhZxBP7iODlgjhB5ZAosYuBHXCxTWs5mQj2FqSIhGlaYk1ISMfAIXpMHynABJfE77pBdYioxA1fSAhXZ6IimoIeuQY2m2EVwQldZsJExSAKDCAZkJKiIwfTC7RHq0i/aO7ORkxwOhGfgsYp4BpfkuAIwJKcH5Lmnc7CQ8sRCnjhr/11bu5MZMTlDAAilZWVSVswpg5c4Uo6XsZ55pFwt4iUSMrxKOxydDLuUBCbOMY6Oo2avTM/bC7d3vbzp5QRIjpDj55DkxMLXHBW6whMCoBBlUIu9IhscUEB0lTGew0M2HIHL5Mwjh8IipJvh4neZR0OPtCx+kTOvw0f0Dit0Sr5MzugC/0r7EvykitggfYlVki/WkqZ9NqCkHapLm647muXwoVZYl75o38GKGXJetVd0ZAAE6EsEcm06gOTQOBYax4D2Ud65TizE2tWhh+6WEyB3zJZYOx5Yzsv4teM1O1LnAQPIYOjLAwZQX+6zygaQMdCXBwygvtxnlQ0gY6AvDxhAfbnPKhtAxkBfHjCA+nKfVTaAjIG+PGAA9eU+q2wAGQN9ecAA6st9VtkAMgb68oAB1Jf7rLIBZAz05QEDqC/3WWUDyBjoywMGUF/us8oGkDHQlwcMoL7cZ5UNIGOgLw8YQH25zyobQMZAXx4wgPpyn1U2gIyBvjzw/wHgd/jcnyAMmgAAAABJRU5ErkJggg==;" vertex="1" parent="1">
          <mxGeometry x="500" y="410" width="84.28" height="266" as="geometry" />
        </mxCell>
      </root>
    </mxGraphModel>
  </diagram>
</mxfile>
